@startuml
!theme metal
'skinparam BackgroundColor #333333
'skinparam LineType ortho
skinparam Arrow {
  Color #F0FFFF
  FontColor #F0FFFF
}
skinparam Class {
  BackgroundColor #444444
  BorderColor #F0FFFF
  FontColor #F0FFFF
}
hide circle
hide members
left to right direction


class ReleaseBatch
class EnvelopeSpecName
'class EnvironmentTag #line.dashed
class Partition #line.dashed

ReleaseBatch -- EnvelopeSpecName
'ReleaseBatch -- EnvironmentTag
ReleaseBatch -- Partition

@enduml